M48
; DRILL file {KiCad 7.0.11-7.0.11~ubuntu20.04.1} date Tue Apr  2 09:14:25 2024
; FORMAT={-:-/ absolute / metric / decimal}
; #@! TF.CreationDate,2024-04-02T09:14:25+00:00
; #@! TF.GenerationSoftware,Kicad,Pcbnew,7.0.11-7.0.11~ubuntu20.04.1
; #@! TF.FileFunction,MixedPlating,1,4
FMAT,2
METRIC
; #@! TA.AperFunction,Plated,PTH,ComponentDrill
T1C0.300
; #@! TA.AperFunction,Plated,PTH,ComponentDrill
T2C0.850
; #@! TA.AperFunction,Plated,PTH,ComponentDrill
T3C1.000
; #@! TA.AperFunction,NonPlated,NPTH,ComponentDrill
T4C3.200
%
G90
G05
T1
X-8.146Y-11.365
T2
X13.637Y18.995
X13.637Y16.455
X13.637Y13.915
X13.637Y11.375
X13.637Y8.835
X13.637Y6.295
X13.637Y3.755
X13.637Y1.215
X13.637Y-3.865
X13.637Y-6.405
X13.637Y-8.945
X13.637Y-11.485
X13.637Y-14.025
X13.637Y-16.565
X13.637Y-19.105
X13.637Y-21.645
X13.637Y-26.725
X13.637Y-29.265
X13.637Y-31.805
X13.637Y-34.345
X13.637Y-36.885
X13.637Y-39.425
X13.637Y-41.711
X13.637Y-44.251
X18.717Y-47.045
X18.717Y-49.585
X21.257Y-47.045
X21.257Y-49.585
X23.797Y-47.045
X23.797Y-49.585
X26.337Y-47.045
X26.337Y-49.585
X28.877Y-47.045
X28.877Y-49.585
X31.417Y-47.045
X31.417Y-49.585
X33.957Y-47.045
X33.957Y-49.585
X36.497Y-47.045
X36.497Y-49.585
X39.037Y-47.045
X39.037Y-49.585
X41.577Y-47.045
X41.577Y-49.585
X44.117Y-47.045
X44.117Y-49.585
X46.657Y-47.045
X46.657Y-49.585
X49.197Y-47.045
X49.197Y-49.585
X51.737Y-47.045
X51.737Y-49.585
X54.277Y-47.045
X54.277Y-49.585
X56.817Y-47.045
X56.817Y-49.585
X59.357Y-47.045
X59.357Y-49.585
X61.897Y28.139
X61.897Y25.599
X61.897Y23.059
X61.897Y20.519
X61.897Y17.979
X61.897Y15.439
X61.897Y12.899
X61.897Y10.359
X61.897Y7.819
X61.897Y5.279
X61.897Y1.215
X61.897Y-1.325
X61.897Y-3.865
X61.897Y-6.405
X61.897Y-8.945
X61.897Y-11.485
X61.897Y-14.025
X61.897Y-16.565
X61.897Y-21.645
X61.897Y-24.185
X61.897Y-26.725
X61.897Y-29.265
X61.897Y-31.805
X61.897Y-34.345
X61.897Y-36.885
X61.897Y-39.425
X61.897Y-47.045
X61.897Y-49.585
T3
X-0.418Y10.051
X-0.418Y3.465
X-0.418Y-11.365
X0.0Y-4.155
X4.122Y3.465
X4.122Y-11.365
X4.647Y-4.155
X5.127Y10.051
X73.474Y31.627
X73.474Y29.087
X73.474Y26.547
X73.474Y24.007
X73.474Y21.467
X73.474Y18.927
X73.474Y16.387
X73.474Y13.847
X73.474Y5.025
X73.474Y2.485
X73.474Y-0.055
X73.474Y-2.595
X73.474Y-5.135
X73.474Y-7.675
X73.474Y-10.215
X73.474Y-12.755
X73.474Y-22.915
X73.474Y-25.455
X73.474Y-27.995
X73.474Y-30.535
X73.474Y-33.075
X73.474Y-35.615
X73.474Y-38.155
X73.474Y-40.695
T4
X13.637Y32.965
X13.637Y-49.585
X18.717Y-19.105
X46.657Y-19.105
X61.897Y31.695
X61.897Y-43.235
M30
