%TF.GenerationSoftware,Flux,Pcbnew,7.0.11-7.0.11~ubuntu20.04.1*%
%TF.CreationDate,2024-04-02T09:14:25+00:00*%
%TF.ProjectId,input,696e7075-742e-46b6-9963-61645f706362,rev?*%
%TF.SameCoordinates,Original*%
%TF.FileFunction,Legend,Top*%
%TF.FilePolarity,Positive*%
%FSLAX46Y46*%
G04 Gerber Fmt 4.6, Leading zero omitted, Abs format (unit mm)*
G04 Filename: strong-peach-translation-collar*
G04 Build it with Flux! Visit our site at: https://www.flux.ai (PCBNEW 7.0.11-7.0.11~ubuntu20.04.1) date 2024-04-02 09:14:25*
%MOMM*%
%LPD*%
G01*
G04 APERTURE LIST*
%ADD10C,0.095000*%
%ADD11C,0.100000*%
%ADD12C,0.120000*%
%ADD13C,0.050000*%
%ADD14C,0.127000*%
G04 APERTURE END LIST*
D10*
X-330166Y-3756655D02*
X-330166Y-4328083D01*
X-330166Y-4328083D02*
X-368261Y-4442369D01*
X-368261Y-4442369D02*
X-444452Y-4518560D01*
X-444452Y-4518560D02*
X-558737Y-4556655D01*
X-558737Y-4556655D02*
X-634928Y-4556655D01*
X431738Y-3756655D02*
X50786Y-3756655D01*
X50786Y-3756655D02*
X12690Y-4137607D01*
X12690Y-4137607D02*
X50786Y-4099512D01*
X50786Y-4099512D02*
X126976Y-4061417D01*
X126976Y-4061417D02*
X317452Y-4061417D01*
X317452Y-4061417D02*
X393643Y-4099512D01*
X393643Y-4099512D02*
X431738Y-4137607D01*
X431738Y-4137607D02*
X469833Y-4213798D01*
X469833Y-4213798D02*
X469833Y-4404274D01*
X469833Y-4404274D02*
X431738Y-4480464D01*
X431738Y-4480464D02*
X393643Y-4518560D01*
X393643Y-4518560D02*
X317452Y-4556655D01*
X317452Y-4556655D02*
X126976Y-4556655D01*
X126976Y-4556655D02*
X50786Y-4518560D01*
X50786Y-4518560D02*
X12690Y-4480464D01*
X-266666Y-1389955D02*
X-266666Y-1961383D01*
X-266666Y-1961383D02*
X-304761Y-2075669D01*
X-304761Y-2075669D02*
X-380952Y-2151860D01*
X-380952Y-2151860D02*
X-495237Y-2189955D01*
X-495237Y-2189955D02*
X-571428Y-2189955D01*
X495238Y-1389955D02*
X114286Y-1389955D01*
X114286Y-1389955D02*
X76190Y-1770907D01*
X76190Y-1770907D02*
X114286Y-1732812D01*
X114286Y-1732812D02*
X190476Y-1694717D01*
X190476Y-1694717D02*
X380952Y-1694717D01*
X380952Y-1694717D02*
X457143Y-1732812D01*
X457143Y-1732812D02*
X495238Y-1770907D01*
X495238Y-1770907D02*
X533333Y-1847098D01*
X533333Y-1847098D02*
X533333Y-2037574D01*
X533333Y-2037574D02*
X495238Y-2113764D01*
X495238Y-2113764D02*
X457143Y-2151860D01*
X457143Y-2151860D02*
X380952Y-2189955D01*
X380952Y-2189955D02*
X190476Y-2189955D01*
X190476Y-2189955D02*
X114286Y-2151860D01*
X114286Y-2151860D02*
X76190Y-2113764D01*
X3855333Y3900044D02*
X3855333Y3328616D01*
X3855333Y3328616D02*
X3817238Y3214330D01*
X3817238Y3214330D02*
X3741047Y3138140D01*
X3741047Y3138140D02*
X3626762Y3100044D01*
X3626762Y3100044D02*
X3550571Y3100044D01*
X4579143Y3633378D02*
X4579143Y3100044D01*
X4388667Y3938140D02*
X4198190Y3366711D01*
X4198190Y3366711D02*
X4693429Y3366711D01*
X3855333Y6230044D02*
X3855333Y5658616D01*
X3855333Y5658616D02*
X3817238Y5544330D01*
X3817238Y5544330D02*
X3741047Y5468140D01*
X3741047Y5468140D02*
X3626762Y5430044D01*
X3626762Y5430044D02*
X3550571Y5430044D01*
X4579143Y5963378D02*
X4579143Y5430044D01*
X4388667Y6268140D02*
X4198190Y5696711D01*
X4198190Y5696711D02*
X4693429Y5696711D01*
X-8349371Y-5149955D02*
X-8730323Y-5149955D01*
X-8730323Y-5149955D02*
X-8768419Y-5530907D01*
X-8768419Y-5530907D02*
X-8730323Y-5492812D01*
X-8730323Y-5492812D02*
X-8654133Y-5454717D01*
X-8654133Y-5454717D02*
X-8463657Y-5454717D01*
X-8463657Y-5454717D02*
X-8387466Y-5492812D01*
X-8387466Y-5492812D02*
X-8349371Y-5530907D01*
X-8349371Y-5530907D02*
X-8311276Y-5607098D01*
X-8311276Y-5607098D02*
X-8311276Y-5797574D01*
X-8311276Y-5797574D02*
X-8349371Y-5873764D01*
X-8349371Y-5873764D02*
X-8387466Y-5911860D01*
X-8387466Y-5911860D02*
X-8463657Y-5949955D01*
X-8463657Y-5949955D02*
X-8654133Y-5949955D01*
X-8654133Y-5949955D02*
X-8730323Y-5911860D01*
X-8730323Y-5911860D02*
X-8768419Y-5873764D01*
X-7816037Y-5149955D02*
X-7739847Y-5149955D01*
X-7739847Y-5149955D02*
X-7663656Y-5188050D01*
X-7663656Y-5188050D02*
X-7625561Y-5226145D01*
X-7625561Y-5226145D02*
X-7587466Y-5302336D01*
X-7587466Y-5302336D02*
X-7549371Y-5454717D01*
X-7549371Y-5454717D02*
X-7549371Y-5645193D01*
X-7549371Y-5645193D02*
X-7587466Y-5797574D01*
X-7587466Y-5797574D02*
X-7625561Y-5873764D01*
X-7625561Y-5873764D02*
X-7663656Y-5911860D01*
X-7663656Y-5911860D02*
X-7739847Y-5949955D01*
X-7739847Y-5949955D02*
X-7816037Y-5949955D01*
X-7816037Y-5949955D02*
X-7892228Y-5911860D01*
X-7892228Y-5911860D02*
X-7930323Y-5873764D01*
X-7930323Y-5873764D02*
X-7968418Y-5797574D01*
X-7968418Y-5797574D02*
X-8006514Y-5645193D01*
X-8006514Y-5645193D02*
X-8006514Y-5454717D01*
X-8006514Y-5454717D02*
X-7968418Y-5302336D01*
X-7968418Y-5302336D02*
X-7930323Y-5226145D01*
X-7930323Y-5226145D02*
X-7892228Y-5188050D01*
X-7892228Y-5188050D02*
X-7816037Y-5149955D01*
X-7054132Y-5149955D02*
X-6977942Y-5149955D01*
X-6977942Y-5149955D02*
X-6901751Y-5188050D01*
X-6901751Y-5188050D02*
X-6863656Y-5226145D01*
X-6863656Y-5226145D02*
X-6825561Y-5302336D01*
X-6825561Y-5302336D02*
X-6787466Y-5454717D01*
X-6787466Y-5454717D02*
X-6787466Y-5645193D01*
X-6787466Y-5645193D02*
X-6825561Y-5797574D01*
X-6825561Y-5797574D02*
X-6863656Y-5873764D01*
X-6863656Y-5873764D02*
X-6901751Y-5911860D01*
X-6901751Y-5911860D02*
X-6977942Y-5949955D01*
X-6977942Y-5949955D02*
X-7054132Y-5949955D01*
X-7054132Y-5949955D02*
X-7130323Y-5911860D01*
X-7130323Y-5911860D02*
X-7168418Y-5873764D01*
X-7168418Y-5873764D02*
X-7206513Y-5797574D01*
X-7206513Y-5797574D02*
X-7244609Y-5645193D01*
X-7244609Y-5645193D02*
X-7244609Y-5454717D01*
X-7244609Y-5454717D02*
X-7206513Y-5302336D01*
X-7206513Y-5302336D02*
X-7168418Y-5226145D01*
X-7168418Y-5226145D02*
X-7130323Y-5188050D01*
X-7130323Y-5188050D02*
X-7054132Y-5149955D01*
X-6482704Y-5949955D02*
X-6292227Y-5949955D01*
X-6292227Y-5949955D02*
X-6292227Y-5797574D01*
X-6292227Y-5797574D02*
X-6368418Y-5759479D01*
X-6368418Y-5759479D02*
X-6444608Y-5683288D01*
X-6444608Y-5683288D02*
X-6482704Y-5569002D01*
X-6482704Y-5569002D02*
X-6482704Y-5378526D01*
X-6482704Y-5378526D02*
X-6444608Y-5264240D01*
X-6444608Y-5264240D02*
X-6368418Y-5188050D01*
X-6368418Y-5188050D02*
X-6254132Y-5149955D01*
X-6254132Y-5149955D02*
X-6101751Y-5149955D01*
X-6101751Y-5149955D02*
X-5987465Y-5188050D01*
X-5987465Y-5188050D02*
X-5911275Y-5264240D01*
X-5911275Y-5264240D02*
X-5873180Y-5378526D01*
X-5873180Y-5378526D02*
X-5873180Y-5569002D01*
X-5873180Y-5569002D02*
X-5911275Y-5683288D01*
X-5911275Y-5683288D02*
X-5987465Y-5759479D01*
X-5987465Y-5759479D02*
X-6063656Y-5797574D01*
X-6063656Y-5797574D02*
X-6063656Y-5949955D01*
X-6063656Y-5949955D02*
X-5873180Y-5949955D01*
X-7454132Y-3089955D02*
X-7720799Y-2709002D01*
X-7911275Y-3089955D02*
X-7911275Y-2289955D01*
X-7911275Y-2289955D02*
X-7606513Y-2289955D01*
X-7606513Y-2289955D02*
X-7530323Y-2328050D01*
X-7530323Y-2328050D02*
X-7492228Y-2366145D01*
X-7492228Y-2366145D02*
X-7454132Y-2442336D01*
X-7454132Y-2442336D02*
X-7454132Y-2556621D01*
X-7454132Y-2556621D02*
X-7492228Y-2632812D01*
X-7492228Y-2632812D02*
X-7530323Y-2670907D01*
X-7530323Y-2670907D02*
X-7606513Y-2709002D01*
X-7606513Y-2709002D02*
X-7911275Y-2709002D01*
X-7187466Y-2289955D02*
X-6692228Y-2289955D01*
X-6692228Y-2289955D02*
X-6958894Y-2594717D01*
X-6958894Y-2594717D02*
X-6844609Y-2594717D01*
X-6844609Y-2594717D02*
X-6768418Y-2632812D01*
X-6768418Y-2632812D02*
X-6730323Y-2670907D01*
X-6730323Y-2670907D02*
X-6692228Y-2747098D01*
X-6692228Y-2747098D02*
X-6692228Y-2937574D01*
X-6692228Y-2937574D02*
X-6730323Y-3013764D01*
X-6730323Y-3013764D02*
X-6768418Y-3051860D01*
X-6768418Y-3051860D02*
X-6844609Y-3089955D01*
X-6844609Y-3089955D02*
X-7073180Y-3089955D01*
X-7073180Y-3089955D02*
X-7149371Y-3051860D01*
X-7149371Y-3051860D02*
X-7187466Y-3013764D01*
X4860133Y10485544D02*
X4860133Y9914116D01*
X4860133Y9914116D02*
X4822038Y9799830D01*
X4822038Y9799830D02*
X4745847Y9723640D01*
X4745847Y9723640D02*
X4631562Y9685544D01*
X4631562Y9685544D02*
X4555371Y9685544D01*
X5202990Y10409354D02*
X5241086Y10447449D01*
X5241086Y10447449D02*
X5317276Y10485544D01*
X5317276Y10485544D02*
X5507752Y10485544D01*
X5507752Y10485544D02*
X5583943Y10447449D01*
X5583943Y10447449D02*
X5622038Y10409354D01*
X5622038Y10409354D02*
X5660133Y10333163D01*
X5660133Y10333163D02*
X5660133Y10256973D01*
X5660133Y10256973D02*
X5622038Y10142687D01*
X5622038Y10142687D02*
X5164895Y9685544D01*
X5164895Y9685544D02*
X5660133Y9685544D01*
X4860133Y12815544D02*
X4860133Y12244116D01*
X4860133Y12244116D02*
X4822038Y12129830D01*
X4822038Y12129830D02*
X4745847Y12053640D01*
X4745847Y12053640D02*
X4631562Y12015544D01*
X4631562Y12015544D02*
X4555371Y12015544D01*
X5202990Y12739354D02*
X5241086Y12777449D01*
X5241086Y12777449D02*
X5317276Y12815544D01*
X5317276Y12815544D02*
X5507752Y12815544D01*
X5507752Y12815544D02*
X5583943Y12777449D01*
X5583943Y12777449D02*
X5622038Y12739354D01*
X5622038Y12739354D02*
X5660133Y12663163D01*
X5660133Y12663163D02*
X5660133Y12586973D01*
X5660133Y12586973D02*
X5622038Y12472687D01*
X5622038Y12472687D02*
X5164895Y12015544D01*
X5164895Y12015544D02*
X5660133Y12015544D01*
X-8349371Y-12359855D02*
X-8730323Y-12359855D01*
X-8730323Y-12359855D02*
X-8768419Y-12740807D01*
X-8768419Y-12740807D02*
X-8730323Y-12702712D01*
X-8730323Y-12702712D02*
X-8654133Y-12664617D01*
X-8654133Y-12664617D02*
X-8463657Y-12664617D01*
X-8463657Y-12664617D02*
X-8387466Y-12702712D01*
X-8387466Y-12702712D02*
X-8349371Y-12740807D01*
X-8349371Y-12740807D02*
X-8311276Y-12816998D01*
X-8311276Y-12816998D02*
X-8311276Y-13007474D01*
X-8311276Y-13007474D02*
X-8349371Y-13083664D01*
X-8349371Y-13083664D02*
X-8387466Y-13121760D01*
X-8387466Y-13121760D02*
X-8463657Y-13159855D01*
X-8463657Y-13159855D02*
X-8654133Y-13159855D01*
X-8654133Y-13159855D02*
X-8730323Y-13121760D01*
X-8730323Y-13121760D02*
X-8768419Y-13083664D01*
X-7816037Y-12359855D02*
X-7739847Y-12359855D01*
X-7739847Y-12359855D02*
X-7663656Y-12397950D01*
X-7663656Y-12397950D02*
X-7625561Y-12436045D01*
X-7625561Y-12436045D02*
X-7587466Y-12512236D01*
X-7587466Y-12512236D02*
X-7549371Y-12664617D01*
X-7549371Y-12664617D02*
X-7549371Y-12855093D01*
X-7549371Y-12855093D02*
X-7587466Y-13007474D01*
X-7587466Y-13007474D02*
X-7625561Y-13083664D01*
X-7625561Y-13083664D02*
X-7663656Y-13121760D01*
X-7663656Y-13121760D02*
X-7739847Y-13159855D01*
X-7739847Y-13159855D02*
X-7816037Y-13159855D01*
X-7816037Y-13159855D02*
X-7892228Y-13121760D01*
X-7892228Y-13121760D02*
X-7930323Y-13083664D01*
X-7930323Y-13083664D02*
X-7968418Y-13007474D01*
X-7968418Y-13007474D02*
X-8006514Y-12855093D01*
X-8006514Y-12855093D02*
X-8006514Y-12664617D01*
X-8006514Y-12664617D02*
X-7968418Y-12512236D01*
X-7968418Y-12512236D02*
X-7930323Y-12436045D01*
X-7930323Y-12436045D02*
X-7892228Y-12397950D01*
X-7892228Y-12397950D02*
X-7816037Y-12359855D01*
X-7054132Y-12359855D02*
X-6977942Y-12359855D01*
X-6977942Y-12359855D02*
X-6901751Y-12397950D01*
X-6901751Y-12397950D02*
X-6863656Y-12436045D01*
X-6863656Y-12436045D02*
X-6825561Y-12512236D01*
X-6825561Y-12512236D02*
X-6787466Y-12664617D01*
X-6787466Y-12664617D02*
X-6787466Y-12855093D01*
X-6787466Y-12855093D02*
X-6825561Y-13007474D01*
X-6825561Y-13007474D02*
X-6863656Y-13083664D01*
X-6863656Y-13083664D02*
X-6901751Y-13121760D01*
X-6901751Y-13121760D02*
X-6977942Y-13159855D01*
X-6977942Y-13159855D02*
X-7054132Y-13159855D01*
X-7054132Y-13159855D02*
X-7130323Y-13121760D01*
X-7130323Y-13121760D02*
X-7168418Y-13083664D01*
X-7168418Y-13083664D02*
X-7206513Y-13007474D01*
X-7206513Y-13007474D02*
X-7244609Y-12855093D01*
X-7244609Y-12855093D02*
X-7244609Y-12664617D01*
X-7244609Y-12664617D02*
X-7206513Y-12512236D01*
X-7206513Y-12512236D02*
X-7168418Y-12436045D01*
X-7168418Y-12436045D02*
X-7130323Y-12397950D01*
X-7130323Y-12397950D02*
X-7054132Y-12359855D01*
X-6482704Y-13159855D02*
X-6292227Y-13159855D01*
X-6292227Y-13159855D02*
X-6292227Y-13007474D01*
X-6292227Y-13007474D02*
X-6368418Y-12969379D01*
X-6368418Y-12969379D02*
X-6444608Y-12893188D01*
X-6444608Y-12893188D02*
X-6482704Y-12778902D01*
X-6482704Y-12778902D02*
X-6482704Y-12588426D01*
X-6482704Y-12588426D02*
X-6444608Y-12474140D01*
X-6444608Y-12474140D02*
X-6368418Y-12397950D01*
X-6368418Y-12397950D02*
X-6254132Y-12359855D01*
X-6254132Y-12359855D02*
X-6101751Y-12359855D01*
X-6101751Y-12359855D02*
X-5987465Y-12397950D01*
X-5987465Y-12397950D02*
X-5911275Y-12474140D01*
X-5911275Y-12474140D02*
X-5873180Y-12588426D01*
X-5873180Y-12588426D02*
X-5873180Y-12778902D01*
X-5873180Y-12778902D02*
X-5911275Y-12893188D01*
X-5911275Y-12893188D02*
X-5987465Y-12969379D01*
X-5987465Y-12969379D02*
X-6063656Y-13007474D01*
X-6063656Y-13007474D02*
X-6063656Y-13159855D01*
X-6063656Y-13159855D02*
X-5873180Y-13159855D01*
X-7454132Y-10299855D02*
X-7720799Y-9918902D01*
X-7911275Y-10299855D02*
X-7911275Y-9499855D01*
X-7911275Y-9499855D02*
X-7606513Y-9499855D01*
X-7606513Y-9499855D02*
X-7530323Y-9537950D01*
X-7530323Y-9537950D02*
X-7492228Y-9576045D01*
X-7492228Y-9576045D02*
X-7454132Y-9652236D01*
X-7454132Y-9652236D02*
X-7454132Y-9766521D01*
X-7454132Y-9766521D02*
X-7492228Y-9842712D01*
X-7492228Y-9842712D02*
X-7530323Y-9880807D01*
X-7530323Y-9880807D02*
X-7606513Y-9918902D01*
X-7606513Y-9918902D02*
X-7911275Y-9918902D01*
X-6768418Y-9766521D02*
X-6768418Y-10299855D01*
X-6958894Y-9461760D02*
X-7149371Y-10033188D01*
X-7149371Y-10033188D02*
X-6654132Y-10033188D01*
X13670871Y49943116D02*
X14051824Y49943116D01*
X13594681Y49714544D02*
X13861348Y50514544D01*
X13861348Y50514544D02*
X14128014Y49714544D01*
X14813728Y49714544D02*
X14356585Y49714544D01*
X14585157Y49714544D02*
X14585157Y50514544D01*
X14585157Y50514544D02*
X14508966Y50400259D01*
X14508966Y50400259D02*
X14432776Y50324068D01*
X14432776Y50324068D02*
X14356585Y50285973D01*
X-685166Y3900044D02*
X-685166Y3328616D01*
X-685166Y3328616D02*
X-723261Y3214330D01*
X-723261Y3214330D02*
X-799452Y3138140D01*
X-799452Y3138140D02*
X-913737Y3100044D01*
X-913737Y3100044D02*
X-989928Y3100044D01*
X-380404Y3900044D02*
X114833Y3900044D01*
X114833Y3900044D02*
X-151832Y3595282D01*
X-151832Y3595282D02*
X-37547Y3595282D01*
X-37547Y3595282D02*
X38643Y3557187D01*
X38643Y3557187D02*
X76738Y3519092D01*
X76738Y3519092D02*
X114833Y3442901D01*
X114833Y3442901D02*
X114833Y3252425D01*
X114833Y3252425D02*
X76738Y3176235D01*
X76738Y3176235D02*
X38643Y3138140D01*
X38643Y3138140D02*
X-37547Y3100044D01*
X-37547Y3100044D02*
X-266118Y3100044D01*
X-266118Y3100044D02*
X-342309Y3138140D01*
X-342309Y3138140D02*
X-380404Y3176235D01*
X-685166Y6230044D02*
X-685166Y5658616D01*
X-685166Y5658616D02*
X-723261Y5544330D01*
X-723261Y5544330D02*
X-799452Y5468140D01*
X-799452Y5468140D02*
X-913737Y5430044D01*
X-913737Y5430044D02*
X-989928Y5430044D01*
X-380404Y6230044D02*
X114833Y6230044D01*
X114833Y6230044D02*
X-151832Y5925282D01*
X-151832Y5925282D02*
X-37547Y5925282D01*
X-37547Y5925282D02*
X38643Y5887187D01*
X38643Y5887187D02*
X76738Y5849092D01*
X76738Y5849092D02*
X114833Y5772901D01*
X114833Y5772901D02*
X114833Y5582425D01*
X114833Y5582425D02*
X76738Y5506235D01*
X76738Y5506235D02*
X38643Y5468140D01*
X38643Y5468140D02*
X-37547Y5430044D01*
X-37547Y5430044D02*
X-266118Y5430044D01*
X-266118Y5430044D02*
X-342309Y5468140D01*
X-342309Y5468140D02*
X-380404Y5506235D01*
X3898033Y-10901855D02*
X3898033Y-11473283D01*
X3898033Y-11473283D02*
X3859938Y-11587569D01*
X3859938Y-11587569D02*
X3783747Y-11663760D01*
X3783747Y-11663760D02*
X3669462Y-11701855D01*
X3669462Y-11701855D02*
X3593271Y-11701855D01*
X4393271Y-11244712D02*
X4317081Y-11206617D01*
X4317081Y-11206617D02*
X4278986Y-11168521D01*
X4278986Y-11168521D02*
X4240890Y-11092331D01*
X4240890Y-11092331D02*
X4240890Y-11054236D01*
X4240890Y-11054236D02*
X4278986Y-10978045D01*
X4278986Y-10978045D02*
X4317081Y-10939950D01*
X4317081Y-10939950D02*
X4393271Y-10901855D01*
X4393271Y-10901855D02*
X4545652Y-10901855D01*
X4545652Y-10901855D02*
X4621843Y-10939950D01*
X4621843Y-10939950D02*
X4659938Y-10978045D01*
X4659938Y-10978045D02*
X4698033Y-11054236D01*
X4698033Y-11054236D02*
X4698033Y-11092331D01*
X4698033Y-11092331D02*
X4659938Y-11168521D01*
X4659938Y-11168521D02*
X4621843Y-11206617D01*
X4621843Y-11206617D02*
X4545652Y-11244712D01*
X4545652Y-11244712D02*
X4393271Y-11244712D01*
X4393271Y-11244712D02*
X4317081Y-11282807D01*
X4317081Y-11282807D02*
X4278986Y-11320902D01*
X4278986Y-11320902D02*
X4240890Y-11397093D01*
X4240890Y-11397093D02*
X4240890Y-11549474D01*
X4240890Y-11549474D02*
X4278986Y-11625664D01*
X4278986Y-11625664D02*
X4317081Y-11663760D01*
X4317081Y-11663760D02*
X4393271Y-11701855D01*
X4393271Y-11701855D02*
X4545652Y-11701855D01*
X4545652Y-11701855D02*
X4621843Y-11663760D01*
X4621843Y-11663760D02*
X4659938Y-11625664D01*
X4659938Y-11625664D02*
X4698033Y-11549474D01*
X4698033Y-11549474D02*
X4698033Y-11397093D01*
X4698033Y-11397093D02*
X4659938Y-11320902D01*
X4659938Y-11320902D02*
X4621843Y-11282807D01*
X4621843Y-11282807D02*
X4545652Y-11244712D01*
X3855333Y-8599855D02*
X3855333Y-9171283D01*
X3855333Y-9171283D02*
X3817238Y-9285569D01*
X3817238Y-9285569D02*
X3741047Y-9361760D01*
X3741047Y-9361760D02*
X3626762Y-9399855D01*
X3626762Y-9399855D02*
X3550571Y-9399855D01*
X4350571Y-8942712D02*
X4274381Y-8904617D01*
X4274381Y-8904617D02*
X4236286Y-8866521D01*
X4236286Y-8866521D02*
X4198190Y-8790331D01*
X4198190Y-8790331D02*
X4198190Y-8752236D01*
X4198190Y-8752236D02*
X4236286Y-8676045D01*
X4236286Y-8676045D02*
X4274381Y-8637950D01*
X4274381Y-8637950D02*
X4350571Y-8599855D01*
X4350571Y-8599855D02*
X4502952Y-8599855D01*
X4502952Y-8599855D02*
X4579143Y-8637950D01*
X4579143Y-8637950D02*
X4617238Y-8676045D01*
X4617238Y-8676045D02*
X4655333Y-8752236D01*
X4655333Y-8752236D02*
X4655333Y-8790331D01*
X4655333Y-8790331D02*
X4617238Y-8866521D01*
X4617238Y-8866521D02*
X4579143Y-8904617D01*
X4579143Y-8904617D02*
X4502952Y-8942712D01*
X4502952Y-8942712D02*
X4350571Y-8942712D01*
X4350571Y-8942712D02*
X4274381Y-8980807D01*
X4274381Y-8980807D02*
X4236286Y-9018902D01*
X4236286Y-9018902D02*
X4198190Y-9095093D01*
X4198190Y-9095093D02*
X4198190Y-9247474D01*
X4198190Y-9247474D02*
X4236286Y-9323664D01*
X4236286Y-9323664D02*
X4274381Y-9361760D01*
X4274381Y-9361760D02*
X4350571Y-9399855D01*
X4350571Y-9399855D02*
X4502952Y-9399855D01*
X4502952Y-9399855D02*
X4579143Y-9361760D01*
X4579143Y-9361760D02*
X4617238Y-9323664D01*
X4617238Y-9323664D02*
X4655333Y-9247474D01*
X4655333Y-9247474D02*
X4655333Y-9095093D01*
X4655333Y-9095093D02*
X4617238Y-9018902D01*
X4617238Y-9018902D02*
X4579143Y-8980807D01*
X4579143Y-8980807D02*
X4502952Y-8942712D01*
X-685166Y10485644D02*
X-685166Y9914216D01*
X-685166Y9914216D02*
X-723261Y9799930D01*
X-723261Y9799930D02*
X-799452Y9723740D01*
X-799452Y9723740D02*
X-913737Y9685644D01*
X-913737Y9685644D02*
X-989928Y9685644D01*
X114833Y9685644D02*
X-342309Y9685644D01*
X-113737Y9685644D02*
X-113737Y10485644D01*
X-113737Y10485644D02*
X-189928Y10371359D01*
X-189928Y10371359D02*
X-266118Y10295168D01*
X-266118Y10295168D02*
X-342309Y10257073D01*
X-685166Y12815644D02*
X-685166Y12244216D01*
X-685166Y12244216D02*
X-723261Y12129930D01*
X-723261Y12129930D02*
X-799452Y12053740D01*
X-799452Y12053740D02*
X-913737Y12015644D01*
X-913737Y12015644D02*
X-989928Y12015644D01*
X114833Y12015644D02*
X-342309Y12015644D01*
X-113737Y12015644D02*
X-113737Y12815644D01*
X-113737Y12815644D02*
X-189928Y12701359D01*
X-189928Y12701359D02*
X-266118Y12625168D01*
X-266118Y12625168D02*
X-342309Y12587073D01*
X-8235086Y9512644D02*
X-8692229Y9512644D01*
X-8463657Y9512644D02*
X-8463657Y10312644D01*
X-8463657Y10312644D02*
X-8539848Y10198359D01*
X-8539848Y10198359D02*
X-8616038Y10122168D01*
X-8616038Y10122168D02*
X-8692229Y10084073D01*
X-7739847Y10312644D02*
X-7663657Y10312644D01*
X-7663657Y10312644D02*
X-7587466Y10274549D01*
X-7587466Y10274549D02*
X-7549371Y10236454D01*
X-7549371Y10236454D02*
X-7511276Y10160263D01*
X-7511276Y10160263D02*
X-7473181Y10007882D01*
X-7473181Y10007882D02*
X-7473181Y9817406D01*
X-7473181Y9817406D02*
X-7511276Y9665025D01*
X-7511276Y9665025D02*
X-7549371Y9588835D01*
X-7549371Y9588835D02*
X-7587466Y9550740D01*
X-7587466Y9550740D02*
X-7663657Y9512644D01*
X-7663657Y9512644D02*
X-7739847Y9512644D01*
X-7739847Y9512644D02*
X-7816038Y9550740D01*
X-7816038Y9550740D02*
X-7854133Y9588835D01*
X-7854133Y9588835D02*
X-7892228Y9665025D01*
X-7892228Y9665025D02*
X-7930324Y9817406D01*
X-7930324Y9817406D02*
X-7930324Y10007882D01*
X-7930324Y10007882D02*
X-7892228Y10160263D01*
X-7892228Y10160263D02*
X-7854133Y10236454D01*
X-7854133Y10236454D02*
X-7816038Y10274549D01*
X-7816038Y10274549D02*
X-7739847Y10312644D01*
X-6977942Y10312644D02*
X-6901752Y10312644D01*
X-6901752Y10312644D02*
X-6825561Y10274549D01*
X-6825561Y10274549D02*
X-6787466Y10236454D01*
X-6787466Y10236454D02*
X-6749371Y10160263D01*
X-6749371Y10160263D02*
X-6711276Y10007882D01*
X-6711276Y10007882D02*
X-6711276Y9817406D01*
X-6711276Y9817406D02*
X-6749371Y9665025D01*
X-6749371Y9665025D02*
X-6787466Y9588835D01*
X-6787466Y9588835D02*
X-6825561Y9550740D01*
X-6825561Y9550740D02*
X-6901752Y9512644D01*
X-6901752Y9512644D02*
X-6977942Y9512644D01*
X-6977942Y9512644D02*
X-7054133Y9550740D01*
X-7054133Y9550740D02*
X-7092228Y9588835D01*
X-7092228Y9588835D02*
X-7130323Y9665025D01*
X-7130323Y9665025D02*
X-7168419Y9817406D01*
X-7168419Y9817406D02*
X-7168419Y10007882D01*
X-7168419Y10007882D02*
X-7130323Y10160263D01*
X-7130323Y10160263D02*
X-7092228Y10236454D01*
X-7092228Y10236454D02*
X-7054133Y10274549D01*
X-7054133Y10274549D02*
X-6977942Y10312644D01*
X-6216037Y10312644D02*
X-6139847Y10312644D01*
X-6139847Y10312644D02*
X-6063656Y10274549D01*
X-6063656Y10274549D02*
X-6025561Y10236454D01*
X-6025561Y10236454D02*
X-5987466Y10160263D01*
X-5987466Y10160263D02*
X-5949371Y10007882D01*
X-5949371Y10007882D02*
X-5949371Y9817406D01*
X-5949371Y9817406D02*
X-5987466Y9665025D01*
X-5987466Y9665025D02*
X-6025561Y9588835D01*
X-6025561Y9588835D02*
X-6063656Y9550740D01*
X-6063656Y9550740D02*
X-6139847Y9512644D01*
X-6139847Y9512644D02*
X-6216037Y9512644D01*
X-6216037Y9512644D02*
X-6292228Y9550740D01*
X-6292228Y9550740D02*
X-6330323Y9588835D01*
X-6330323Y9588835D02*
X-6368418Y9665025D01*
X-6368418Y9665025D02*
X-6406514Y9817406D01*
X-6406514Y9817406D02*
X-6406514Y10007882D01*
X-6406514Y10007882D02*
X-6368418Y10160263D01*
X-6368418Y10160263D02*
X-6330323Y10236454D01*
X-6330323Y10236454D02*
X-6292228Y10274549D01*
X-6292228Y10274549D02*
X-6216037Y10312644D01*
X-7625562Y8224644D02*
X-7435085Y8224644D01*
X-7435085Y8224644D02*
X-7435085Y8377025D01*
X-7435085Y8377025D02*
X-7511276Y8415120D01*
X-7511276Y8415120D02*
X-7587466Y8491311D01*
X-7587466Y8491311D02*
X-7625562Y8605597D01*
X-7625562Y8605597D02*
X-7625562Y8796073D01*
X-7625562Y8796073D02*
X-7587466Y8910359D01*
X-7587466Y8910359D02*
X-7511276Y8986549D01*
X-7511276Y8986549D02*
X-7396990Y9024644D01*
X-7396990Y9024644D02*
X-7244609Y9024644D01*
X-7244609Y9024644D02*
X-7130323Y8986549D01*
X-7130323Y8986549D02*
X-7054133Y8910359D01*
X-7054133Y8910359D02*
X-7016038Y8796073D01*
X-7016038Y8796073D02*
X-7016038Y8605597D01*
X-7016038Y8605597D02*
X-7054133Y8491311D01*
X-7054133Y8491311D02*
X-7130323Y8415120D01*
X-7130323Y8415120D02*
X-7206514Y8377025D01*
X-7206514Y8377025D02*
X-7206514Y8224644D01*
X-7206514Y8224644D02*
X-7016038Y8224644D01*
X-7454132Y11728644D02*
X-7720799Y12109597D01*
X-7911275Y11728644D02*
X-7911275Y12528644D01*
X-7911275Y12528644D02*
X-7606513Y12528644D01*
X-7606513Y12528644D02*
X-7530323Y12490549D01*
X-7530323Y12490549D02*
X-7492228Y12452454D01*
X-7492228Y12452454D02*
X-7454132Y12376263D01*
X-7454132Y12376263D02*
X-7454132Y12261978D01*
X-7454132Y12261978D02*
X-7492228Y12185787D01*
X-7492228Y12185787D02*
X-7530323Y12147692D01*
X-7530323Y12147692D02*
X-7606513Y12109597D01*
X-7606513Y12109597D02*
X-7911275Y12109597D01*
X-6692228Y11728644D02*
X-7149371Y11728644D01*
X-6920799Y11728644D02*
X-6920799Y12528644D01*
X-6920799Y12528644D02*
X-6996990Y12414359D01*
X-6996990Y12414359D02*
X-7073180Y12338168D01*
X-7073180Y12338168D02*
X-7149371Y12300073D01*
X4380333Y-3719755D02*
X4380333Y-4291183D01*
X4380333Y-4291183D02*
X4342238Y-4405469D01*
X4342238Y-4405469D02*
X4266047Y-4481660D01*
X4266047Y-4481660D02*
X4151762Y-4519755D01*
X4151762Y-4519755D02*
X4075571Y-4519755D01*
X5104143Y-3719755D02*
X4951762Y-3719755D01*
X4951762Y-3719755D02*
X4875571Y-3757850D01*
X4875571Y-3757850D02*
X4837476Y-3795945D01*
X4837476Y-3795945D02*
X4761286Y-3910231D01*
X4761286Y-3910231D02*
X4723190Y-4062612D01*
X4723190Y-4062612D02*
X4723190Y-4367374D01*
X4723190Y-4367374D02*
X4761286Y-4443564D01*
X4761286Y-4443564D02*
X4799381Y-4481660D01*
X4799381Y-4481660D02*
X4875571Y-4519755D01*
X4875571Y-4519755D02*
X5027952Y-4519755D01*
X5027952Y-4519755D02*
X5104143Y-4481660D01*
X5104143Y-4481660D02*
X5142238Y-4443564D01*
X5142238Y-4443564D02*
X5180333Y-4367374D01*
X5180333Y-4367374D02*
X5180333Y-4176898D01*
X5180333Y-4176898D02*
X5142238Y-4100707D01*
X5142238Y-4100707D02*
X5104143Y-4062612D01*
X5104143Y-4062612D02*
X5027952Y-4024517D01*
X5027952Y-4024517D02*
X4875571Y-4024517D01*
X4875571Y-4024517D02*
X4799381Y-4062612D01*
X4799381Y-4062612D02*
X4761286Y-4100707D01*
X4761286Y-4100707D02*
X4723190Y-4176898D01*
X4380333Y-1389755D02*
X4380333Y-1961183D01*
X4380333Y-1961183D02*
X4342238Y-2075469D01*
X4342238Y-2075469D02*
X4266047Y-2151660D01*
X4266047Y-2151660D02*
X4151762Y-2189755D01*
X4151762Y-2189755D02*
X4075571Y-2189755D01*
X5104143Y-1389755D02*
X4951762Y-1389755D01*
X4951762Y-1389755D02*
X4875571Y-1427850D01*
X4875571Y-1427850D02*
X4837476Y-1465945D01*
X4837476Y-1465945D02*
X4761286Y-1580231D01*
X4761286Y-1580231D02*
X4723190Y-1732612D01*
X4723190Y-1732612D02*
X4723190Y-2037374D01*
X4723190Y-2037374D02*
X4761286Y-2113564D01*
X4761286Y-2113564D02*
X4799381Y-2151660D01*
X4799381Y-2151660D02*
X4875571Y-2189755D01*
X4875571Y-2189755D02*
X5027952Y-2189755D01*
X5027952Y-2189755D02*
X5104143Y-2151660D01*
X5104143Y-2151660D02*
X5142238Y-2113564D01*
X5142238Y-2113564D02*
X5180333Y-2037374D01*
X5180333Y-2037374D02*
X5180333Y-1846898D01*
X5180333Y-1846898D02*
X5142238Y-1770707D01*
X5142238Y-1770707D02*
X5104143Y-1732612D01*
X5104143Y-1732612D02*
X5027952Y-1694517D01*
X5027952Y-1694517D02*
X4875571Y-1694517D01*
X4875571Y-1694517D02*
X4799381Y-1732612D01*
X4799381Y-1732612D02*
X4761286Y-1770707D01*
X4761286Y-1770707D02*
X4723190Y-1846898D01*
X-685166Y-10929855D02*
X-685166Y-11501283D01*
X-685166Y-11501283D02*
X-723261Y-11615569D01*
X-723261Y-11615569D02*
X-799452Y-11691760D01*
X-799452Y-11691760D02*
X-913737Y-11729855D01*
X-913737Y-11729855D02*
X-989928Y-11729855D01*
X-380404Y-10929855D02*
X152929Y-10929855D01*
X152929Y-10929855D02*
X-189928Y-11729855D01*
X-685166Y-8599855D02*
X-685166Y-9171283D01*
X-685166Y-9171283D02*
X-723261Y-9285569D01*
X-723261Y-9285569D02*
X-799452Y-9361760D01*
X-799452Y-9361760D02*
X-913737Y-9399855D01*
X-913737Y-9399855D02*
X-989928Y-9399855D01*
X-380404Y-8599855D02*
X152929Y-8599855D01*
X152929Y-8599855D02*
X-189928Y-9399855D01*
X-8349371Y2470044D02*
X-8730323Y2470044D01*
X-8730323Y2470044D02*
X-8768419Y2089092D01*
X-8768419Y2089092D02*
X-8730323Y2127187D01*
X-8730323Y2127187D02*
X-8654133Y2165282D01*
X-8654133Y2165282D02*
X-8463657Y2165282D01*
X-8463657Y2165282D02*
X-8387466Y2127187D01*
X-8387466Y2127187D02*
X-8349371Y2089092D01*
X-8349371Y2089092D02*
X-8311276Y2012901D01*
X-8311276Y2012901D02*
X-8311276Y1822425D01*
X-8311276Y1822425D02*
X-8349371Y1746235D01*
X-8349371Y1746235D02*
X-8387466Y1708140D01*
X-8387466Y1708140D02*
X-8463657Y1670044D01*
X-8463657Y1670044D02*
X-8654133Y1670044D01*
X-8654133Y1670044D02*
X-8730323Y1708140D01*
X-8730323Y1708140D02*
X-8768419Y1746235D01*
X-7816037Y2470044D02*
X-7739847Y2470044D01*
X-7739847Y2470044D02*
X-7663656Y2431949D01*
X-7663656Y2431949D02*
X-7625561Y2393854D01*
X-7625561Y2393854D02*
X-7587466Y2317663D01*
X-7587466Y2317663D02*
X-7549371Y2165282D01*
X-7549371Y2165282D02*
X-7549371Y1974806D01*
X-7549371Y1974806D02*
X-7587466Y1822425D01*
X-7587466Y1822425D02*
X-7625561Y1746235D01*
X-7625561Y1746235D02*
X-7663656Y1708140D01*
X-7663656Y1708140D02*
X-7739847Y1670044D01*
X-7739847Y1670044D02*
X-7816037Y1670044D01*
X-7816037Y1670044D02*
X-7892228Y1708140D01*
X-7892228Y1708140D02*
X-7930323Y1746235D01*
X-7930323Y1746235D02*
X-7968418Y1822425D01*
X-7968418Y1822425D02*
X-8006514Y1974806D01*
X-8006514Y1974806D02*
X-8006514Y2165282D01*
X-8006514Y2165282D02*
X-7968418Y2317663D01*
X-7968418Y2317663D02*
X-7930323Y2393854D01*
X-7930323Y2393854D02*
X-7892228Y2431949D01*
X-7892228Y2431949D02*
X-7816037Y2470044D01*
X-7054132Y2470044D02*
X-6977942Y2470044D01*
X-6977942Y2470044D02*
X-6901751Y2431949D01*
X-6901751Y2431949D02*
X-6863656Y2393854D01*
X-6863656Y2393854D02*
X-6825561Y2317663D01*
X-6825561Y2317663D02*
X-6787466Y2165282D01*
X-6787466Y2165282D02*
X-6787466Y1974806D01*
X-6787466Y1974806D02*
X-6825561Y1822425D01*
X-6825561Y1822425D02*
X-6863656Y1746235D01*
X-6863656Y1746235D02*
X-6901751Y1708140D01*
X-6901751Y1708140D02*
X-6977942Y1670044D01*
X-6977942Y1670044D02*
X-7054132Y1670044D01*
X-7054132Y1670044D02*
X-7130323Y1708140D01*
X-7130323Y1708140D02*
X-7168418Y1746235D01*
X-7168418Y1746235D02*
X-7206513Y1822425D01*
X-7206513Y1822425D02*
X-7244609Y1974806D01*
X-7244609Y1974806D02*
X-7244609Y2165282D01*
X-7244609Y2165282D02*
X-7206513Y2317663D01*
X-7206513Y2317663D02*
X-7168418Y2393854D01*
X-7168418Y2393854D02*
X-7130323Y2431949D01*
X-7130323Y2431949D02*
X-7054132Y2470044D01*
X-6482704Y1670044D02*
X-6292227Y1670044D01*
X-6292227Y1670044D02*
X-6292227Y1822425D01*
X-6292227Y1822425D02*
X-6368418Y1860520D01*
X-6368418Y1860520D02*
X-6444608Y1936711D01*
X-6444608Y1936711D02*
X-6482704Y2050997D01*
X-6482704Y2050997D02*
X-6482704Y2241473D01*
X-6482704Y2241473D02*
X-6444608Y2355759D01*
X-6444608Y2355759D02*
X-6368418Y2431949D01*
X-6368418Y2431949D02*
X-6254132Y2470044D01*
X-6254132Y2470044D02*
X-6101751Y2470044D01*
X-6101751Y2470044D02*
X-5987465Y2431949D01*
X-5987465Y2431949D02*
X-5911275Y2355759D01*
X-5911275Y2355759D02*
X-5873180Y2241473D01*
X-5873180Y2241473D02*
X-5873180Y2050997D01*
X-5873180Y2050997D02*
X-5911275Y1936711D01*
X-5911275Y1936711D02*
X-5987465Y1860520D01*
X-5987465Y1860520D02*
X-6063656Y1822425D01*
X-6063656Y1822425D02*
X-6063656Y1670044D01*
X-6063656Y1670044D02*
X-5873180Y1670044D01*
X-7454132Y4530044D02*
X-7720799Y4910997D01*
X-7911275Y4530044D02*
X-7911275Y5330044D01*
X-7911275Y5330044D02*
X-7606513Y5330044D01*
X-7606513Y5330044D02*
X-7530323Y5291949D01*
X-7530323Y5291949D02*
X-7492228Y5253854D01*
X-7492228Y5253854D02*
X-7454132Y5177663D01*
X-7454132Y5177663D02*
X-7454132Y5063378D01*
X-7454132Y5063378D02*
X-7492228Y4987187D01*
X-7492228Y4987187D02*
X-7530323Y4949092D01*
X-7530323Y4949092D02*
X-7606513Y4910997D01*
X-7606513Y4910997D02*
X-7911275Y4910997D01*
X-7149371Y5253854D02*
X-7111275Y5291949D01*
X-7111275Y5291949D02*
X-7035085Y5330044D01*
X-7035085Y5330044D02*
X-6844609Y5330044D01*
X-6844609Y5330044D02*
X-6768418Y5291949D01*
X-6768418Y5291949D02*
X-6730323Y5253854D01*
X-6730323Y5253854D02*
X-6692228Y5177663D01*
X-6692228Y5177663D02*
X-6692228Y5101473D01*
X-6692228Y5101473D02*
X-6730323Y4987187D01*
X-6730323Y4987187D02*
X-7187466Y4530044D01*
X-7187466Y4530044D02*
X-6692228Y4530044D01*
X73207433Y-20150455D02*
X73207433Y-20721883D01*
X73207433Y-20721883D02*
X73169338Y-20836169D01*
X73169338Y-20836169D02*
X73093147Y-20912360D01*
X73093147Y-20912360D02*
X72978862Y-20950455D01*
X72978862Y-20950455D02*
X72902671Y-20950455D01*
X73626481Y-20950455D02*
X73778862Y-20950455D01*
X73778862Y-20950455D02*
X73855052Y-20912360D01*
X73855052Y-20912360D02*
X73893148Y-20874264D01*
X73893148Y-20874264D02*
X73969338Y-20759979D01*
X73969338Y-20759979D02*
X74007433Y-20607598D01*
X74007433Y-20607598D02*
X74007433Y-20302836D01*
X74007433Y-20302836D02*
X73969338Y-20226645D01*
X73969338Y-20226645D02*
X73931243Y-20188550D01*
X73931243Y-20188550D02*
X73855052Y-20150455D01*
X73855052Y-20150455D02*
X73702671Y-20150455D01*
X73702671Y-20150455D02*
X73626481Y-20188550D01*
X73626481Y-20188550D02*
X73588386Y-20226645D01*
X73588386Y-20226645D02*
X73550290Y-20302836D01*
X73550290Y-20302836D02*
X73550290Y-20493312D01*
X73550290Y-20493312D02*
X73588386Y-20569502D01*
X73588386Y-20569502D02*
X73626481Y-20607598D01*
X73626481Y-20607598D02*
X73702671Y-20645693D01*
X73702671Y-20645693D02*
X73855052Y-20645693D01*
X73855052Y-20645693D02*
X73931243Y-20607598D01*
X73931243Y-20607598D02*
X73969338Y-20569502D01*
X73969338Y-20569502D02*
X74007433Y-20493312D01*
X72826480Y7789544D02*
X72826480Y7218116D01*
X72826480Y7218116D02*
X72788385Y7103830D01*
X72788385Y7103830D02*
X72712194Y7027640D01*
X72712194Y7027640D02*
X72597909Y6989544D01*
X72597909Y6989544D02*
X72521718Y6989544D01*
X73626480Y6989544D02*
X73169337Y6989544D01*
X73397909Y6989544D02*
X73397909Y7789544D01*
X73397909Y7789544D02*
X73321718Y7675259D01*
X73321718Y7675259D02*
X73245528Y7599068D01*
X73245528Y7599068D02*
X73169337Y7560973D01*
X74121719Y7789544D02*
X74197909Y7789544D01*
X74197909Y7789544D02*
X74274100Y7751449D01*
X74274100Y7751449D02*
X74312195Y7713354D01*
X74312195Y7713354D02*
X74350290Y7637163D01*
X74350290Y7637163D02*
X74388385Y7484782D01*
X74388385Y7484782D02*
X74388385Y7294306D01*
X74388385Y7294306D02*
X74350290Y7141925D01*
X74350290Y7141925D02*
X74312195Y7065735D01*
X74312195Y7065735D02*
X74274100Y7027640D01*
X74274100Y7027640D02*
X74197909Y6989544D01*
X74197909Y6989544D02*
X74121719Y6989544D01*
X74121719Y6989544D02*
X74045528Y7027640D01*
X74045528Y7027640D02*
X74007433Y7065735D01*
X74007433Y7065735D02*
X73969338Y7141925D01*
X73969338Y7141925D02*
X73931242Y7294306D01*
X73931242Y7294306D02*
X73931242Y7484782D01*
X73931242Y7484782D02*
X73969338Y7637163D01*
X73969338Y7637163D02*
X74007433Y7713354D01*
X74007433Y7713354D02*
X74045528Y7751449D01*
X74045528Y7751449D02*
X74121719Y7789544D01*
X72826480Y34392044D02*
X72826480Y33820616D01*
X72826480Y33820616D02*
X72788385Y33706330D01*
X72788385Y33706330D02*
X72712194Y33630140D01*
X72712194Y33630140D02*
X72597909Y33592044D01*
X72597909Y33592044D02*
X72521718Y33592044D01*
X73626480Y33592044D02*
X73169337Y33592044D01*
X73397909Y33592044D02*
X73397909Y34392044D01*
X73397909Y34392044D02*
X73321718Y34277759D01*
X73321718Y34277759D02*
X73245528Y34201568D01*
X73245528Y34201568D02*
X73169337Y34163473D01*
X74388385Y33592044D02*
X73931242Y33592044D01*
X74159814Y33592044D02*
X74159814Y34392044D01*
X74159814Y34392044D02*
X74083623Y34277759D01*
X74083623Y34277759D02*
X74007433Y34201568D01*
X74007433Y34201568D02*
X73931242Y34163473D01*
D11*
%TO.C,*%
X-635000Y-2884800D02*
X1270000Y-2884800D01*
X1270000Y-2884800D02*
X1270000Y-5424800D01*
X1270000Y-5424800D02*
X-1270000Y-5424800D01*
X-1270000Y-5424800D02*
X-1270000Y-3519800D01*
X-1270000Y-3519800D02*
X-635000Y-2884800D01*
D12*
X-1330000Y-5484800D02*
X1330000Y-5484800D01*
X-1330000Y-5424800D02*
X-1330000Y-5484800D01*
X1330000Y-5424800D02*
X1330000Y-5484800D01*
X-1330000Y-5424800D02*
X1330000Y-5424800D01*
X-1330000Y-4154800D02*
X-1330000Y-2824800D01*
X-1330000Y-2824800D02*
X0Y-2824800D01*
D13*
X-1800000Y-2354800D02*
X-1800000Y-5954800D01*
X-1800000Y-5954800D02*
X1800000Y-5954800D01*
X1800000Y-5954800D02*
X1800000Y-2354800D01*
X1800000Y-2354800D02*
X-1800000Y-2354800D01*
D11*
X3487000Y4735200D02*
X5392000Y4735200D01*
X5392000Y4735200D02*
X5392000Y2195200D01*
X5392000Y2195200D02*
X2852000Y2195200D01*
X2852000Y2195200D02*
X2852000Y4100200D01*
X2852000Y4100200D02*
X3487000Y4735200D01*
D12*
X2792000Y2135200D02*
X5452000Y2135200D01*
X2792000Y2195200D02*
X2792000Y2135200D01*
X5452000Y2195200D02*
X5452000Y2135200D01*
X2792000Y2195200D02*
X5452000Y2195200D01*
X2792000Y3465200D02*
X2792000Y4795200D01*
X2792000Y4795200D02*
X4122000Y4795200D01*
D13*
X2322000Y5265200D02*
X2322000Y1665200D01*
X2322000Y1665200D02*
X5922000Y1665200D01*
X5922000Y1665200D02*
X5922000Y5265200D01*
X5922000Y5265200D02*
X2322000Y5265200D01*
D12*
X-7558100Y-3632300D02*
X-7083500Y-3632300D01*
X-7558100Y-4677300D02*
X-7083500Y-4677300D01*
D11*
X4491800Y11320700D02*
X6396800Y11320700D01*
X6396800Y11320700D02*
X6396800Y8780700D01*
X6396800Y8780700D02*
X3856800Y8780700D01*
X3856800Y8780700D02*
X3856800Y10685700D01*
X3856800Y10685700D02*
X4491800Y11320700D01*
D12*
X3796800Y8720700D02*
X6456800Y8720700D01*
X3796800Y8780700D02*
X3796800Y8720700D01*
X6456800Y8780700D02*
X6456800Y8720700D01*
X3796800Y8780700D02*
X6456800Y8780700D01*
X3796800Y10050700D02*
X3796800Y11380700D01*
X3796800Y11380700D02*
X5126800Y11380700D01*
D13*
X3326800Y11850700D02*
X3326800Y8250700D01*
X3326800Y8250700D02*
X6926800Y8250700D01*
X6926800Y8250700D02*
X6926800Y11850700D01*
X6926800Y11850700D02*
X3326800Y11850700D01*
D12*
X-7558100Y-10842200D02*
X-7083500Y-10842200D01*
X-7558100Y-11887200D02*
X-7083500Y-11887200D01*
D14*
X11097300Y46934700D02*
X14397300Y46934700D01*
X14397300Y46934700D02*
X23389300Y46934700D01*
X23389300Y46934700D02*
X39987300Y46934700D01*
X39987300Y46934700D02*
X51787300Y46934700D01*
X51787300Y46934700D02*
X64437300Y46934700D01*
X64437300Y46934700D02*
X64437300Y-54665300D01*
X64437300Y-54665300D02*
X11097300Y-54665300D01*
X11097300Y-54665300D02*
X11097300Y46934700D01*
X51787300Y46934700D02*
X51787300Y53284700D01*
X51787300Y53284700D02*
X39987300Y53284700D01*
X39987300Y53284700D02*
X39987300Y46934700D01*
X14397300Y46934700D02*
X14397300Y48744700D01*
X14397300Y48744700D02*
X23389300Y48744700D01*
X23389300Y48744700D02*
X23389300Y46934700D01*
X11097300Y46934700D02*
X14397300Y46934700D01*
X14397300Y46934700D02*
X23389300Y46934700D01*
X23389300Y46934700D02*
X39987300Y46934700D01*
X39987300Y46934700D02*
X51787300Y46934700D01*
X51787300Y46934700D02*
X64437300Y46934700D01*
X64437300Y46934700D02*
X64437300Y-54665300D01*
X64437300Y-54665300D02*
X11097300Y-54665300D01*
X11097300Y-54665300D02*
X11097300Y46934700D01*
X51787300Y46934700D02*
X51787300Y53284700D01*
X51787300Y53284700D02*
X39987300Y53284700D01*
X39987300Y53284700D02*
X39987300Y46934700D01*
X14397300Y46934700D02*
X14397300Y48744700D01*
X14397300Y48744700D02*
X23389300Y48744700D01*
X23389300Y48744700D02*
X23389300Y46934700D01*
D13*
X10847300Y47184700D02*
X14147300Y47184700D01*
X14147300Y47184700D02*
X14147300Y48994700D01*
X14147300Y48994700D02*
X23639300Y48994700D01*
X23639300Y48994700D02*
X23639300Y47184700D01*
X23639300Y47184700D02*
X39737300Y47184700D01*
X39737300Y47184700D02*
X39737300Y53534700D01*
X39737300Y53534700D02*
X52037300Y53534700D01*
X52037300Y53534700D02*
X52037300Y47184700D01*
X52037300Y47184700D02*
X64687300Y47184700D01*
X64687300Y47184700D02*
X64687300Y-54915300D01*
X64687300Y-54915300D02*
X10847300Y-54915300D01*
X10847300Y-54915300D02*
X10847300Y47184700D01*
D11*
X-1053500Y4735200D02*
X851500Y4735200D01*
X851500Y4735200D02*
X851500Y2195200D01*
X851500Y2195200D02*
X-1688500Y2195200D01*
X-1688500Y2195200D02*
X-1688500Y4100200D01*
X-1688500Y4100200D02*
X-1053500Y4735200D01*
D12*
X-1748500Y2135200D02*
X911500Y2135200D01*
X-1748500Y2195200D02*
X-1748500Y2135200D01*
X911500Y2195200D02*
X911500Y2135200D01*
X-1748500Y2195200D02*
X911500Y2195200D01*
X-1748500Y3465200D02*
X-1748500Y4795200D01*
X-1748500Y4795200D02*
X-418500Y4795200D01*
D13*
X-2218500Y5265200D02*
X-2218500Y1665200D01*
X-2218500Y1665200D02*
X1381500Y1665200D01*
X1381500Y1665200D02*
X1381500Y5265200D01*
X1381500Y5265200D02*
X-2218500Y5265200D01*
D11*
X3487000Y-10094700D02*
X5392000Y-10094700D01*
X5392000Y-10094700D02*
X5392000Y-12634700D01*
X5392000Y-12634700D02*
X2852000Y-12634700D01*
X2852000Y-12634700D02*
X2852000Y-10729700D01*
X2852000Y-10729700D02*
X3487000Y-10094700D01*
D12*
X2792000Y-12694700D02*
X5452000Y-12694700D01*
X2792000Y-12634700D02*
X2792000Y-12694700D01*
X5452000Y-12634700D02*
X5452000Y-12694700D01*
X2792000Y-12634700D02*
X5452000Y-12634700D01*
X2792000Y-11364700D02*
X2792000Y-10034700D01*
X2792000Y-10034700D02*
X4122000Y-10034700D01*
D13*
X2322000Y-9564700D02*
X2322000Y-13164700D01*
X2322000Y-13164700D02*
X5922000Y-13164700D01*
X5922000Y-13164700D02*
X5922000Y-9564700D01*
X5922000Y-9564700D02*
X2322000Y-9564700D01*
D11*
X-1053500Y11320800D02*
X851500Y11320800D01*
X851500Y11320800D02*
X851500Y8780800D01*
X851500Y8780800D02*
X-1688500Y8780800D01*
X-1688500Y8780800D02*
X-1688500Y10685800D01*
X-1688500Y10685800D02*
X-1053500Y11320800D01*
D12*
X-1748500Y8720800D02*
X911500Y8720800D01*
X-1748500Y8780800D02*
X-1748500Y8720800D01*
X911500Y8780800D02*
X911500Y8720800D01*
X-1748500Y8780800D02*
X911500Y8780800D01*
X-1748500Y10050800D02*
X-1748500Y11380800D01*
X-1748500Y11380800D02*
X-418500Y11380800D01*
D13*
X-2218500Y11850800D02*
X-2218500Y8250800D01*
X-2218500Y8250800D02*
X1381500Y8250800D01*
X1381500Y8250800D02*
X1381500Y11850800D01*
X1381500Y11850800D02*
X-2218500Y11850800D01*
D12*
X-7558100Y11186300D02*
X-7083500Y11186300D01*
X-7558100Y10141300D02*
X-7083500Y10141300D01*
D11*
X4012000Y-2884600D02*
X5917000Y-2884600D01*
X5917000Y-2884600D02*
X5917000Y-5424600D01*
X5917000Y-5424600D02*
X3377000Y-5424600D01*
X3377000Y-5424600D02*
X3377000Y-3519600D01*
X3377000Y-3519600D02*
X4012000Y-2884600D01*
D12*
X3317000Y-5484600D02*
X5977000Y-5484600D01*
X3317000Y-5424600D02*
X3317000Y-5484600D01*
X5977000Y-5424600D02*
X5977000Y-5484600D01*
X3317000Y-5424600D02*
X5977000Y-5424600D01*
X3317000Y-4154600D02*
X3317000Y-2824600D01*
X3317000Y-2824600D02*
X4647000Y-2824600D01*
D13*
X2847000Y-2354600D02*
X2847000Y-5954600D01*
X2847000Y-5954600D02*
X6447000Y-5954600D01*
X6447000Y-5954600D02*
X6447000Y-2354600D01*
X6447000Y-2354600D02*
X2847000Y-2354600D01*
D11*
X-1053500Y-10094700D02*
X851500Y-10094700D01*
X851500Y-10094700D02*
X851500Y-12634700D01*
X851500Y-12634700D02*
X-1688500Y-12634700D01*
X-1688500Y-12634700D02*
X-1688500Y-10729700D01*
X-1688500Y-10729700D02*
X-1053500Y-10094700D01*
D12*
X-1748500Y-12694700D02*
X911500Y-12694700D01*
X-1748500Y-12634700D02*
X-1748500Y-12694700D01*
X911500Y-12634700D02*
X911500Y-12694700D01*
X-1748500Y-12634700D02*
X911500Y-12634700D01*
X-1748500Y-11364700D02*
X-1748500Y-10034700D01*
X-1748500Y-10034700D02*
X-418500Y-10034700D01*
D13*
X-2218500Y-9564700D02*
X-2218500Y-13164700D01*
X-2218500Y-13164700D02*
X1381500Y-13164700D01*
X1381500Y-13164700D02*
X1381500Y-9564700D01*
X1381500Y-9564700D02*
X-2218500Y-9564700D01*
D12*
X-7558100Y3987700D02*
X-7083500Y3987700D01*
X-7558100Y2942700D02*
X-7083500Y2942700D01*
X72144100Y-42025300D02*
X74804100Y-42025300D01*
X72144100Y-24185300D02*
X72144100Y-42025300D01*
X74804100Y-24185300D02*
X74804100Y-42025300D01*
X72144100Y-24185300D02*
X74804100Y-24185300D01*
X72144100Y-22915300D02*
X72144100Y-21585300D01*
X72144100Y-21585300D02*
X73474100Y-21585300D01*
X72144100Y-14085300D02*
X74804100Y-14085300D01*
X72144100Y3754700D02*
X72144100Y-14085300D01*
X74804100Y3754700D02*
X74804100Y-14085300D01*
X72144100Y3754700D02*
X74804100Y3754700D01*
X72144100Y5024700D02*
X72144100Y6354700D01*
X72144100Y6354700D02*
X73474100Y6354700D01*
X72144100Y12517200D02*
X74804100Y12517200D01*
X72144100Y30357200D02*
X72144100Y12517200D01*
X74804100Y30357200D02*
X74804100Y12517200D01*
X72144100Y30357200D02*
X74804100Y30357200D01*
X72144100Y31627200D02*
X72144100Y32957200D01*
X72144100Y32957200D02*
X73474100Y32957200D01*
%TD*%
M02*
