%TF.GenerationSoftware,Flux,Pcbnew,7.0.11-7.0.11~ubuntu20.04.1*%
%TF.CreationDate,2024-04-02T09:14:25+00:00*%
%TF.ProjectId,input,696e7075-742e-46b6-9963-61645f706362,rev?*%
%TF.SameCoordinates,Original*%
%TF.FileFunction,Copper,L2,Inr*%
%TF.FilePolarity,Positive*%
%FSLAX46Y46*%
G04 Gerber Fmt 4.6, Leading zero omitted, Abs format (unit mm)*
G04 Filename: strong-peach-translation-collar*
G04 Build it with Flux! Visit our site at: https://www.flux.ai (PCBNEW 7.0.11-7.0.11~ubuntu20.04.1) date 2024-04-02 09:14:25*
%MOMM*%
%LPD*%
G01*
G04 APERTURE LIST*
G04 Aperture macros list*
%AMFreePoly0*
4,1,5,0.850000,-0.850000,-0.850000,-0.850000,-0.850000,0.850000,0.850000,0.850000,0.850000,-0.850000,0.850000,-0.850000,$1*%
%AMFreePoly1*
4,1,5,0.679000,-0.679000,-0.679000,-0.679000,-0.679000,0.679000,0.679000,0.679000,0.679000,-0.679000,0.679000,-0.679000,$1*%
%AMFreePoly2*
4,1,129,0.022069,0.299187,0.036723,0.297744,0.051289,0.295583,0.065730,0.292711,0.080014,0.289133,0.094105,0.284858,0.107969,0.279898,0.121572,0.274263,0.134883,0.267967,0.147869,0.261026,0.160499,0.253456,0.172742,0.245275,0.184569,0.236504,0.195952,0.227163,0.206862,0.217274,0.217274,0.206862,0.227163,0.195952,0.236504,0.184569,0.245275,0.172742,0.253456,0.160499,
0.261026,0.147869,0.267967,0.134883,0.274263,0.121572,0.279898,0.107969,0.284858,0.094105,0.289133,0.080014,0.292711,0.065730,0.295583,0.051289,0.297744,0.036723,0.299187,0.022069,0.299910,0.007362,0.299910,-0.007362,0.299187,-0.022069,0.297744,-0.036723,0.295583,-0.051289,0.292711,-0.065730,0.289133,-0.080014,0.284858,-0.094105,0.279898,-0.107969,0.274263,-0.121572,
0.267967,-0.134883,0.261026,-0.147869,0.253456,-0.160499,0.245275,-0.172742,0.236504,-0.184569,0.227163,-0.195952,0.217274,-0.206862,0.206862,-0.217274,0.195952,-0.227163,0.184569,-0.236504,0.172742,-0.245275,0.160499,-0.253456,0.147869,-0.261026,0.134883,-0.267967,0.121572,-0.274263,0.107969,-0.279898,0.094105,-0.284858,0.080014,-0.289133,0.065730,-0.292711,0.051289,-0.295583,
0.036723,-0.297744,0.022069,-0.299187,0.007362,-0.299910,-0.007362,-0.299910,-0.022069,-0.299187,-0.036723,-0.297744,-0.051289,-0.295583,-0.065730,-0.292711,-0.080014,-0.289133,-0.094105,-0.284858,-0.107969,-0.279898,-0.121572,-0.274263,-0.134883,-0.267967,-0.147869,-0.261026,-0.160499,-0.253456,-0.172742,-0.245275,-0.184569,-0.236504,-0.195952,-0.227163,-0.206862,-0.217274,-0.217274,-0.206862,
-0.227163,-0.195952,-0.236504,-0.184569,-0.245275,-0.172742,-0.253456,-0.160499,-0.261026,-0.147869,-0.267967,-0.134883,-0.274263,-0.121572,-0.279898,-0.107969,-0.284858,-0.094105,-0.289133,-0.080014,-0.292711,-0.065730,-0.295583,-0.051289,-0.297744,-0.036723,-0.299187,-0.022069,-0.299910,-0.007362,-0.299910,0.007362,-0.299187,0.022069,-0.297744,0.036723,-0.295583,0.051289,-0.292711,0.065730,
-0.289133,0.080014,-0.284858,0.094105,-0.279898,0.107969,-0.274263,0.121572,-0.267967,0.134883,-0.261026,0.147869,-0.253456,0.160499,-0.245275,0.172742,-0.236504,0.184569,-0.227163,0.195952,-0.217274,0.206862,-0.206862,0.217274,-0.195952,0.227163,-0.184569,0.236504,-0.172742,0.245275,-0.160499,0.253456,-0.147869,0.261026,-0.134883,0.267967,-0.121572,0.274263,-0.107969,0.279898,
-0.094105,0.284858,-0.080014,0.289133,-0.065730,0.292711,-0.051289,0.295583,-0.036723,0.297744,-0.022069,0.299187,-0.007362,0.299910,0.007362,0.299910,0.022069,0.299187,0.022069,0.299187,$1*%
G04 Aperture macros list end*
%TA.AperFunction,ComponentPad*%
%ADD10FreePoly0,0.000000*%
%TD*%
%TA.AperFunction,ComponentPad*%
%ADD11C,1.358000*%
%TD*%
%TA.AperFunction,ComponentPad*%
%ADD12FreePoly1,0.000000*%
%TD*%
%TA.AperFunction,ComponentPad*%
%ADD13C,1.700000*%
%TD*%
%TA.AperFunction,ComponentPad*%
%ADD14FreePoly2,0.000000*%
%TD*%
G04 APERTURE END LIST*
D10*
%TO.N,N/C*%
%TO.C,*%
X0Y-4154800D03*
X4122000Y3465200D03*
X5126800Y10050700D03*
D11*
X61897300Y-21645300D03*
X61897300Y-16565300D03*
X59357300Y-47045300D03*
X33957300Y-49585300D03*
X61897300Y-47045300D03*
X13637300Y11374700D03*
X28877300Y-49585300D03*
X36497300Y-49585300D03*
X61897300Y25598700D03*
X56817300Y-47045300D03*
X23797300Y-47045300D03*
X13637300Y-31805300D03*
X13637300Y-11485300D03*
X61897300Y-3865300D03*
X13637300Y-19105300D03*
X61897300Y-31805300D03*
X28877300Y-47045300D03*
D12*
X13637300Y18994700D03*
D11*
X46657300Y-49585300D03*
X39037300Y-47045300D03*
X13637300Y-16565300D03*
X44117300Y-49585300D03*
X18717300Y-47045300D03*
X61897300Y-6405300D03*
X61897300Y-24185300D03*
X33957300Y-47045300D03*
X51737300Y-47045300D03*
X13637300Y6294700D03*
X21257300Y-47045300D03*
X21257300Y-49585300D03*
X61897300Y-11485300D03*
X61897300Y15438700D03*
X61897300Y23058700D03*
X61897300Y20518700D03*
X26337300Y-47045300D03*
X61897300Y-49585300D03*
X13637300Y-36885300D03*
X61897300Y-8945300D03*
X61897300Y-1325300D03*
X31417300Y-49585300D03*
X41577300Y-49585300D03*
X13637300Y-3865300D03*
X61897300Y17978700D03*
X13637300Y16454700D03*
X13637300Y1214700D03*
X18717300Y-49585300D03*
X61897300Y-39425300D03*
X61897300Y1214700D03*
X36497300Y-47045300D03*
X41577300Y-47045300D03*
X13637300Y-39425300D03*
X13637300Y-8945300D03*
X49197300Y-49585300D03*
X61897300Y12898700D03*
X44117300Y-47045300D03*
X39037300Y-49585300D03*
X13637300Y3754700D03*
X56817300Y-49585300D03*
X13637300Y-41711300D03*
X23797300Y-49585300D03*
X13637300Y-14025300D03*
X61897300Y28138700D03*
X61897300Y10358700D03*
X49197300Y-47045300D03*
X54277300Y-49585300D03*
X31417300Y-47045300D03*
X26337300Y-49585300D03*
X13637300Y-21645300D03*
X61897300Y-29265300D03*
X61897300Y5278700D03*
X61897300Y-36885300D03*
X13637300Y-44251300D03*
X13637300Y13914700D03*
X61897300Y-26725300D03*
X61897300Y-34345300D03*
X59357300Y-49585300D03*
X13637300Y-26725300D03*
X13637300Y-34345300D03*
X54277300Y-47045300D03*
X13637300Y-29265300D03*
X61897300Y-14025300D03*
X61897300Y7818700D03*
X13637300Y8834700D03*
X46657300Y-47045300D03*
X51737300Y-49585300D03*
X13637300Y-6405300D03*
D10*
X-418500Y3465200D03*
X4122000Y-11364700D03*
X-418500Y10050800D03*
X4647000Y-4154600D03*
X-418500Y-11364700D03*
D13*
X73474100Y-30535300D03*
X73474100Y-33075300D03*
X73474100Y-35615300D03*
X73474100Y-25455300D03*
X73474100Y-40695300D03*
D10*
X73474100Y-22915300D03*
D13*
X73474100Y-27995300D03*
X73474100Y-38155300D03*
X73474100Y-2595300D03*
X73474100Y-5135300D03*
X73474100Y-7675300D03*
X73474100Y2484700D03*
X73474100Y-12755300D03*
D10*
X73474100Y5024700D03*
D13*
X73474100Y-55300D03*
X73474100Y-10215300D03*
X73474100Y24007200D03*
X73474100Y21467200D03*
X73474100Y18927200D03*
X73474100Y29087200D03*
X73474100Y13847200D03*
D10*
X73474100Y31627200D03*
D13*
X73474100Y26547200D03*
X73474100Y16387200D03*
D14*
%TO.N,Net 5*%
X-8145800Y-11364700D03*
%TD*%
M02*
